<svg width="23" height="28" viewBox="0 0 23 28" fill="none" xmlns="http://www.w3.org/2000/svg">
    <path d="M9.71576 15.6819C9.45545 15.6831 9.19919 15.6175 8.97149 15.4913C8.7438 15.3652 8.5523 15.1827 8.41532 14.9613L3.44958 7.03363C3.34141 6.85897 3.19048 6.71477 3.01107 6.61467C2.83165 6.51457 2.62968 6.46187 2.42423 6.46156C2.2808 6.46156 2.14324 6.40458 2.04182 6.30316C1.9404 6.20174 1.88342 6.06419 1.88342 5.92075C1.88342 5.77732 1.9404 5.63977 2.04182 5.53835C2.14324 5.43692 2.2808 5.37995 2.42423 5.37995C2.81211 5.38108 3.19333 5.4808 3.53209 5.66973C3.87085 5.85866 4.15602 6.1306 4.36082 6.46L9.33282 14.3877C9.37346 14.4537 9.43056 14.508 9.49852 14.5452C9.56648 14.5825 9.64296 14.6015 9.72045 14.6003C9.79803 14.6005 9.87429 14.5802 9.94153 14.5415C10.0088 14.5028 10.0646 14.4471 10.1034 14.3799L17.9842 1.1879C18.2008 0.82643 18.5072 0.5271 18.8737 0.318962C19.2401 0.110825 19.6541 0.000949512 20.0755 0C20.219 0 20.3565 0.0569778 20.4579 0.158399C20.5594 0.25982 20.6163 0.397377 20.6163 0.540808C20.6163 0.684239 20.5594 0.821796 20.4579 0.923217C20.3565 1.02464 20.219 1.08162 20.0755 1.08162C19.8411 1.08226 19.6109 1.14347 19.4072 1.25931C19.2034 1.37516 19.033 1.5417 18.9126 1.74278L11.0334 14.9347C10.8994 15.1612 10.7091 15.349 10.4809 15.4799C10.2527 15.6109 9.99447 15.6805 9.73139 15.6819H9.71576Z" fill="#0B1034"/>
    <path d="M5.19239 24.1644C5.09653 24.1655 5.00211 24.141 4.91887 24.0935C4.83563 24.0459 4.76656 23.977 4.7188 23.8939C4.67103 23.8108 4.64628 23.7165 4.6471 23.6206C4.64793 23.5247 4.67429 23.4308 4.72348 23.3485L6.56942 20.2365C6.67988 20.0521 6.73822 19.8412 6.73822 19.6262C6.73822 19.4112 6.67988 19.2003 6.56942 19.0158L0.448596 8.85613C0.411957 8.79528 0.387664 8.7278 0.377104 8.65755C0.366544 8.5873 0.369924 8.51566 0.38705 8.44672C0.404177 8.37778 0.434715 8.31288 0.476921 8.25574C0.519127 8.1986 0.572174 8.15033 0.633033 8.1137C0.693893 8.07706 0.761373 8.05276 0.831621 8.0422C0.901869 8.03164 0.973509 8.03502 1.04245 8.05215C1.18169 8.08674 1.30148 8.17522 1.37547 8.29813L7.49629 18.4578C7.70859 18.8092 7.82133 19.2117 7.82243 19.6222C7.82353 20.0327 7.71296 20.4358 7.50255 20.7883L5.65817 23.9003C5.61014 23.981 5.54194 24.0477 5.46027 24.0941C5.3786 24.1404 5.28628 24.1646 5.19239 24.1644Z" fill="#0B1034"/>
    <path d="M6.85856 27.0904C6.71513 27.0904 6.57757 27.0334 6.47615 26.932C6.37473 26.8306 6.31775 26.693 6.31775 26.5496C6.31775 26.4062 6.37473 26.2686 6.47615 26.1672C6.57757 26.0658 6.71513 26.0088 6.85856 26.0088C7.10094 26.0073 7.33883 25.9432 7.54915 25.8227C7.75947 25.7022 7.93508 25.5294 8.05896 25.3211L21.2416 3.12605C21.3163 3.00607 21.4351 2.92014 21.5725 2.88668C21.7099 2.85321 21.8549 2.87487 21.9764 2.947C22.098 3.01914 22.1865 3.13602 22.223 3.27262C22.2595 3.40921 22.241 3.55466 22.1716 3.6778L8.98897 25.8728C8.76914 26.2417 8.45749 26.5473 8.0844 26.7598C7.71131 26.9724 7.28951 27.0847 6.86012 27.0857L6.85856 27.0904Z" fill="#0B1034"/>
    <path d="M10.0128 8.26374C9.19526 8.26405 8.39604 8.0219 7.71619 7.56792C7.03634 7.11394 6.5064 6.46852 6.19342 5.71331C5.88044 4.95811 5.79846 4.12704 5.95787 3.32524C6.11728 2.52344 6.51091 1.78693 7.08897 1.20887C7.66702 0.630815 8.40353 0.237186 9.20533 0.077777C10.0071 -0.0816324 10.8382 0.000339561 11.5934 0.313324C12.3486 0.626308 12.994 1.15624 13.448 1.83609C13.902 2.51594 14.1441 3.31516 14.1438 4.13266C14.1422 5.22778 13.7064 6.27758 12.932 7.05195C12.1577 7.82632 11.1079 8.26209 10.0128 8.26374ZM10.0128 1.08162C9.40925 1.08132 8.81921 1.25999 8.31727 1.59506C7.81532 1.93012 7.42402 2.40652 7.19285 2.96399C6.96169 3.52147 6.90104 4.13498 7.01859 4.72693C7.13614 5.31887 7.4266 5.86266 7.85323 6.28951C8.27986 6.71636 8.8235 7.0071 9.41539 7.12495C10.0073 7.2428 10.6208 7.18247 11.1784 6.95159C11.736 6.72071 12.2126 6.32966 12.5479 5.82788C12.8832 5.32611 13.0622 4.73616 13.0622 4.13266C13.0614 3.324 12.7399 2.54867 12.1682 1.97672C11.5966 1.40476 10.8214 1.08287 10.0128 1.08162Z" fill="#0B1034"/>
    <path d="M21.959 1.85375C22.2603 1.85375 22.5045 1.60952 22.5045 1.30825C22.5045 1.00698 22.2603 0.762756 21.959 0.762756C21.6577 0.762756 21.4135 1.00698 21.4135 1.30825C21.4135 1.60952 21.6577 1.85375 21.959 1.85375Z" fill="#0B1034"/>
    <path d="M0.545497 7.18993C0.846767 7.18993 1.09099 6.9457 1.09099 6.64443C1.09099 6.34317 0.846767 6.09894 0.545497 6.09894C0.244227 6.09894 0 6.34317 0 6.64443C0 6.9457 0.244227 7.18993 0.545497 7.18993Z" fill="#0B1034"/>
    <path d="M5.02359 26.1385C5.32486 26.1385 5.56908 25.8943 5.56908 25.593C5.56908 25.2918 5.32486 25.0475 5.02359 25.0475C4.72232 25.0475 4.47809 25.2918 4.47809 25.593C4.47809 25.8943 4.72232 26.1385 5.02359 26.1385Z" fill="#0B1034"/>
</svg>
